<svg viewBox="0 0 16 16" version="1.1" xmlns="http://www.w3.org/2000/svg"><path fill="black" d="M1.98099941,9.1858544 L1.90457134,9.49219505 L4.23099569,9.49219505 L4.30742377,9.1858544 C3.98086744,9.1566791 3.8494343,9.12020997 3.8494343,8.92388451 C3.8494343,8.85824009 3.86333032,8.77800801 3.89054335,8.67589446 L4.67566814,5.36632132 C4.99527646,5.45384722 5.31430578,5.51888382 5.62001809,5.51888382 C6.64774413,5.51888382 7.32112181,4.79740296 7.32112181,4.03215914 C7.32112181,3.66017406 7.07794157,3.36842105 6.7102762,3.36842105 C6.37677186,3.36842105 6.14053962,3.68205553 6.14053962,3.96651471 C6.14053962,4.17803564 6.20307168,4.32391214 6.25865574,4.44000553 C6.30034378,4.53482525 6.33508382,4.61566515 6.33508382,4.6952894 C6.33508382,4.87763503 6.18222766,5.03080536 5.86956735,5.03080536 C5.55748603,5.03080536 5.21703369,4.84116591 4.82852429,4.61566515 L4.75846522,4.57129438 C4.21015167,4.25826772 3.57846203,3.88628264 2.84892129,3.88628264 C1.7731382,3.88628264 0.842105263,4.57919602 0.842105263,5.66536814 C0.842105263,6.37226136 1.30762173,6.853046 1.94683838,6.853046 C2.47430791,6.853046 2.86976531,6.53272551 2.86976531,6.07321453 C2.86976531,5.79604918 2.69606514,5.51888382 2.3631398,5.51888382 C2.09911553,5.51888382 1.96015539,5.66536814 1.84898728,5.78206935 C1.7656112,5.87628125 1.69613113,5.94921951 1.59249002,5.94921951 C1.43963387,5.94921951 1.32846575,5.803343 1.32846575,5.56325459 C1.32846575,5.08186214 1.71060614,4.70258323 2.30060774,4.70258323 C2.63353307,4.70258323 2.93229738,4.80469678 3.30054175,4.92869181 L3.50203395,4.99433623 L2.62716407,8.67589446 C2.52294396,9.09103467 2.43261987,9.14999309 1.98099941,9.1858544 Z M14.1932798,8.74153889 L13.5401671,7.0572731 C14.5539971,6.92598425 15.1578947,6.50355021 15.1578947,5.51888382 C15.1578947,4.6369388 14.40172,4.38955657 13.0329626,4.38955657 L10.1588037,4.38955657 C8.86705338,4.38955657 7.84569634,5.11833126 7.84569634,6.29202929 C7.84569634,7.17397431 8.38764089,7.61889764 9.02627854,7.61889764 C9.7766633,7.61889764 10.3047118,7.06456693 10.3047118,6.39414284 C10.3047118,6.05862688 10.0887446,5.7449924 9.70023522,5.7449924 C9.39452291,5.7449924 9.13049864,5.98568863 9.13049864,6.37955519 C9.13049864,6.47437491 9.15134266,6.54731316 9.17218669,6.6196436 C9.19360971,6.68528802 9.21387473,6.75154027 9.21387473,6.83177234 C9.21387473,6.98494267 9.10270661,7.09374223 8.93653345,7.09374223 C8.60997712,7.09374223 8.38069288,6.8238707 8.38069288,6.29202929 C8.38069288,5.51888382 9.01296152,4.88492886 10.1588037,4.88492886 L10.6306892,4.88492886 C10.9016614,4.88492886 11.0962056,4.95057328 11.0962056,5.15480039 C11.0962056,5.18397569 11.0886786,5.22044481 11.0823096,5.25691394 L10.2763408,8.67589446 C10.1790687,9.09103467 10.0748486,9.14999309 9.62380714,9.1858544 L9.54737906,9.49219505 L11.8738034,9.49219505 L11.9496525,9.1858544 C11.6236752,9.1566791 11.498611,9.12020997 11.498611,8.92388451 C11.498611,8.85824009 11.5125071,8.77800801 11.5333511,8.67589446 L11.8946474,7.12291753 L12.2484168,7.12291753 L13.1302347,9.49219505 L14.6715342,9.49219505 L14.7485413,9.1858544 C14.443408,9.14999309 14.3044479,9.05456555 14.1932798,8.74153889 Z M12.7145123,6.62754524 L12.0127636,6.62754524 L12.3740599,5.10374361 C12.4012729,4.97245476 12.498545,4.88492886 12.6236092,4.88492886 L12.9710095,4.88492886 C13.5193231,4.88492886 13.8314044,5.02351153 13.8314044,5.54866694 C13.8314044,6.34308606 13.408734,6.62754524 12.7145123,6.62754524 Z M11.448238,11.1661279 C11.1008376,11.1661279 10.9479815,11.3995303 10.8020733,11.6250311 C10.6636922,11.8292582 10.5316801,12.0334853 10.2537598,12.0334853 C9.63596615,12.0334853 8.67019318,10.910844 7.6013581,7.57209559 L8.05066255,7.21652162 C7.95860146,7.09313441 7.88738439,6.943611 7.83990634,6.76855919 L6.28181576,8.00182346 L6.62168911,6.57344937 C6.7120132,6.15101533 6.82318131,6.09935074 7.27480177,6.06288161 L7.34428184,5.75714878 L5.01785748,5.75714878 L4.94837741,6.06288161 C5.28188175,6.09205691 5.39941887,6.12852604 5.39941887,6.32545932 C5.39941887,6.39110374 5.38552286,6.47133582 5.36525784,6.57344937 L4.54539301,10.0434867 C4.44812091,10.4586269 4.3444798,10.5175853 3.89285935,10.5534466 L3.81643127,10.8597873 L6.14285562,10.8597873 L6.2192837,10.5534466 C5.89272737,10.5242713 5.76766324,10.4878022 5.76766324,10.2914767 C5.76766324,10.2258323 5.78155926,10.1456002 5.80240328,10.0434867 L6.10116758,8.76038127 L6.55915704,8.40298384 C7.68415518,11.6104434 9.04538556,12.6315789 10.4622,12.6315789 C11.489926,12.6315789 11.9548635,12.1793618 11.9548635,11.6979693 C11.9548635,11.4287056 11.7747943,11.1661279 11.448238,11.1661279 Z"></path></svg>