<svg xmlns="http://www.w3.org/2000/svg" width="18" height="18" viewBox="0 0 24 24"><path fill="#FFF" d="M12 0C5.383 0 0 5.383 0 12s5.383 12 12 12 12-5.383 12-12S18.617 0 12 0z"/><path fill="currentColor" d="M18.82 12.376l-.02.023-5.343 4.014c-.09.068-.196.1-.3.1-.152 0-.303-.07-.4-.2-.166-.22-.122-.533.098-.7l4.147-3.115H5.5c-.276 0-.5-.225-.5-.5 0-.277.224-.5.5-.5h11.502l-4.147-3.117c-.22-.166-.264-.48-.098-.7.165-.22.478-.266.7-.1L18.8 11.6l.02.024.097.115.034.05.05.21-.05.21-.033.05-.096.115z"/></svg>