<svg xmlns="http://www.w3.org/2000/svg" width="18" height="18" viewBox="0 0 24 24"><path fill="currentColor" fill-rule="evenodd" d="M18.918 8.875L12.402.2c-.006-.01-.017-.012-.023-.02-.035-.04-.074-.07-.118-.097-.018-.01-.032-.025-.05-.033-.064-.03-.134-.05-.21-.05-.075 0-.145.02-.21.05-.02.008-.033.023-.05.034-.044.027-.083.057-.116.096-.007.008-.017.01-.024.02l-6.52 8.682c-.166.22-.12.534.1.7.22.166.534.12.7-.1L11.502 2V23.5c0 .276.224.5.5.5s.5-.224.5-.5V1.998l5.616 7.478c.166.22.48.265.7.1.22-.166.266-.48.1-.7"/></svg>