<svg xmlns="http://www.w3.org/2000/svg" width="18" height="18" viewBox="0 0 24 24"><path fill="currentColor" d="M5.5 21C4.122 21 3 19.878 3 18.5V11H1.5c-.827 0-1.5.673-1.5 1.5v10c0 .827.673 1.5 1.5 1.5h10c.827 0 1.5-.673 1.5-1.5V21H5.5zm17-21h-17C4.673 0 4 .673 4 1.5v17c0 .827.673 1.5 1.5 1.5h17c.827 0 1.5-.673 1.5-1.5v-17c0-.827-.673-1.5-1.5-1.5zM19 11.032c0 .29-.235.526-.526.526-.29 0-.527-.235-.527-.526V6.797L9.9 14.847c-.104.1-.24.153-.374.153s-.27-.052-.37-.154c-.208-.206-.208-.54 0-.745l8.047-8.047h-4.235c-.29 0-.526-.236-.526-.527 0-.29.236-.526.526-.526h5.506l.2.04c.13.054.233.157.286.285l.04.2v5.507z"/></svg>