<svg xmlns="http://www.w3.org/2000/svg" width="18" height="18" viewBox="0 0 24 24"><path fill="currentColor" d="M12 0C5.373 0 0 5.372 0 12c0 6.627 5.373 12 12 12s12-5.373 12-12c0-6.628-5.373-12-12-12zm7.778 19.778C17.786 21.768 15.038 23 12 23c-3.04 0-5.786-1.23-7.778-3.222C2.232 17.786 1 15.038 1 12c0-3.04 1.23-5.786 3.222-7.778S8.962 1 12 1c3.04 0 5.786 1.23 7.778 3.222C21.768 6.214 23 8.962 23 12c0 3.04-1.23 5.786-3.222 7.778zm-1.06-7.053L17 15.008V10.01c.003-.862-.29-1.632-.832-2.175-.538-.544-1.305-.843-2.167-.84H11.49c-.278 0-.502.223-.502.5 0 .275.224.5.5.5H14c.64 0 1.123.208 1.46.545.333.34.54.827.542 1.47v4.998l-1.718-2.285c-.166-.22-.48-.265-.7-.1-.22.167-.265.48-.1.7l2.617 3.483c.008.01.018.012.025.02.033.04.073.068.115.096.018.01.033.025.052.034.064.03.134.05.21.05.075 0 .145-.02.21-.05.018-.008.032-.022.05-.033.043-.028.083-.058.116-.098.006-.007.017-.01.023-.02l2.617-3.48c.165-.22.12-.533-.1-.7-.22-.165-.534-.12-.7.1zm-6.216 3.28H9.987c-.64 0-1.122-.208-1.46-.545-.333-.34-.54-.827-.54-1.47V8.99l1.716 2.286c.166.22.48.266.7.1.22-.166.266-.48.1-.7L7.886 7.194c-.007-.01-.018-.013-.025-.02-.03-.038-.07-.067-.11-.094-.02-.012-.035-.027-.055-.037-.06-.028-.125-.044-.195-.046l-.014-.003-.014.003c-.07.002-.134.018-.194.046-.02.01-.038.026-.057.038-.04.028-.077.056-.11.093-.005.008-.016.01-.024.02l-2.615 3.48c-.165.222-.12.536.1.702.22.166.535.12.7-.1L6.988 8.99v5c-.003.86.29 1.63.832 2.174.538.545 1.305.844 2.167.842H12.5c.278 0 .502-.224.502-.5s-.224-.5-.5-.5z"/></svg>