<svg xmlns="http://www.w3.org/2000/svg" width="18" height="18" viewBox="0 0 24 24"><path fill="currentColor" fill-rule="evenodd" d="M23.39 20.558l-3.712-3.71c-.66-.66-1.658-.755-2.425-.304l-2.38-2.38c1.334-1.502 2.152-3.473 2.152-5.64 0-4.695-3.805-8.5-8.5-8.5-4.694 0-8.5 3.805-8.5 8.5 0 4.694 3.806 8.5 8.5 8.5 2.168 0 4.14-.82 5.64-2.153l2.38 2.38c-.45.768-.354 1.768.304 2.426l3.71 3.71c.782.782 2.048.782 2.83 0 .78-.78.78-2.047 0-2.828zM3.22 13.828c-1.358-1.36-2.196-3.232-2.197-5.305 0-2.072.84-3.944 2.197-5.303 1.36-1.358 3.23-2.196 5.304-2.197 2.072 0 3.944.84 5.302 2.197 1.358 1.36 2.197 3.23 2.198 5.303 0 2.07-.84 3.942-2.194 5.3 0 .002-.004.002-.004.003-.002 0-.002.003-.003.004-1.36 1.356-3.23 2.193-5.3 2.193-2.072 0-3.944-.838-5.303-2.196z"/></svg>