<svg xmlns="http://www.w3.org/2000/svg" width="12" height="12" viewBox="0 0 24 24"><path fill="currentColor" fill-rule="evenodd" d="M0 1c0-.552.447-1 1-1h22c.552 0 1 .444 1 1 0 .552-.447 1-1 1H1C.45 2 0 1.556 0 1zm0 7.333c0-.552.455-1 .992-1h18.016c.548 0 .992.444.992 1 0 .553-.455 1-.992 1H.992c-.548 0-.992-.444-.992-1zm0 7.334c0-.553.445-1 1-1h14c.552 0 1 .444 1 1 0 .552-.445 1-1 1H1c-.552 0-1-.444-1-1zM0 23c0-.552.456-1 1.002-1h9.996c.553 0 1.002.444 1.002 1 0 .552-.456 1-1.002 1H1.002C.45 24 0 23.556 0 23z"/></svg>