<svg xmlns="http://www.w3.org/2000/svg" width="18" height="18" viewBox="0 0 24 24"><path fill="currentColor" d="M12 0C5.373 0 0 5.372 0 12s5.373 12 12 12 12-5.372 12-12S18.626 0 12 0zm7.778 19.778C17.786 21.768 15.038 23 12 23c-3.04 0-5.786-1.23-7.778-3.222C2.232 17.786 1 15.038 1 12c0-3.04 1.23-5.786 3.222-7.778S8.962 1 12 1c3.04 0 5.786 1.23 7.778 3.222C21.768 6.214 23 8.962 23 12c0 3.04-1.23 5.786-3.222 7.778zm-2.86-12.47C11.802 11.2 9.22 14.145 9.22 14.145c.002 0-.66-.575-2.126-2.204-.388-.43-.796-.61-1.045-.22-.13.206.03.5.097.607.518.835 2.787 4.548 2.873 4.634.22.222.81.197 1.006 0 .244-.33 1.127-1.946 2.056-3.163 2.306-3.022 5.064-5.6 5.653-6.09.152-.125.248-.297.21-.44-.067-.25-.384-.47-1.027.037"/></svg>