<svg xmlns="http://www.w3.org/2000/svg" width="18" height="18" viewBox="0 0 24 24"><path  fill="currentColor" d="M19.95 14.173c0-.008.003-.014.003-.02V7.475c-.003-.5-.123-1.065-.427-1.56-.152-.247-.356-.476-.622-.646-.266-.17-.594-.272-.95-.27-.357-.002-.686.1-.95.27-.02.013-.032.033-.05.046v-1.84c-.003-.5-.124-1.065-.427-1.56-.153-.247-.357-.476-.623-.646-.265-.17-.594-.272-.95-.27-.357-.002-.686.1-.95.27-.09.057-.148.14-.223.207-.065-.192-.143-.382-.253-.562C13.374.67 13.17.44 12.904.27 12.64.1 12.31 0 11.954 0c-.357 0-.686.1-.95.27-.402.256-.658.638-.82 1.028-.02.055-.03.11-.048.167-.074-.067-.145-.137-.232-.193-.265-.17-.594-.27-.95-.27-.357 0-.686.1-.95.27-.402.256-.658.638-.82 1.028-.16.393-.23.803-.23 1.178v9.03c-.33-.963-.458-1.322-.46-1.325l-.016-.04c-.2-.44-.502-.76-.84-.946-.34-.19-.696-.248-1.012-.248-.74.004-1.31.3-1.348.313-.177.088-.286.274-.277.472.002.013.106 2.26.533 4.363.744 3.648 2.408 6.05 3.312 7.14.116.164 1.467 1.74 5.612 1.73 4.138.01 5.39-1.502 5.505-1.68 0 0 0-.002.002-.003l.005-.007c.412-.58.86-1.578 1.244-2.958.38-1.382.68-3.133.735-5.147zm-1-.035c-.05 1.933-.34 3.61-.7 4.916-.357 1.302-.8 2.244-1.097 2.646l-.002.003c-.04.04-.984 1.257-4.693 1.265-1.98 0-3.204-.37-3.922-.72-.358-.172-.59-.34-.73-.458l-.14-.133-.024-.027v-.002l-.014-.017c-.828-.993-2.41-3.256-3.113-6.712-.203-1-.333-2.056-.41-2.86-.04-.403-.064-.742-.08-.98v-.01c.17-.052.39-.1.603-.1.193 0 .372.037.524.122.15.086.288.217.415.482l.294.848c.22.643.58 1.69 1.123 3.3 0 .003.003.005.004.008.018.05.047.095.08.137.008.01.013.022.02.032.032.033.07.057.108.08.017.012.03.026.05.035.03.013.062.018.094.026s.064.018.098.02c.006 0 .01.003.016.003.024 0 .045-.01.068-.013.032-.004.063-.002.095-.012.008-.003.012-.01.02-.01.02-.01.038-.024.06-.036.037-.022.075-.043.107-.073l.016-.022c.038-.04.07-.086.092-.138l.005-.014c.023-.056.035-.115.036-.177V3.48c-.002-.326.096-.748.277-1.034.09-.145.194-.255.31-.327.114-.072.238-.114.414-.115.174 0 .3.043.414.115.17.106.323.307.428.563.106.254.158.554.157.798v8.116c0 .277.224.5.5.5.277 0 .5-.223.5-.5V3.48 2.477c-.002-.326.096-.748.277-1.034.09-.145.194-.255.31-.327.114-.072.238-.114.414-.115.174 0 .3.043.414.115.17.106.323.307.428.563.106.254.158.554.157.798V11c0 .275.224.5.5.5.277 0 .5-.225.5-.5V3.48v-.004c-.002-.326.096-.748.277-1.034.09-.145.194-.255.31-.327.114-.072.238-.114.414-.115.174 0 .3.043.414.115.17.106.323.307.428.563.106.254.158.554.157.798V12c0 .275.224.5.5.5.277 0 .5-.225.5-.5V7.473c-.002-.326.096-.747.277-1.032.09-.145.194-.255.31-.327.114-.072.238-.114.414-.115.174 0 .3.043.413.115.17.106.324.307.43.563.104.254.156.554.156.798v6.65c0 .004-.003.008-.003.013v-.002z"/></svg>