<svg xmlns="http://www.w3.org/2000/svg" width="18" height="18" viewBox="0 0 24 24"><path fill="currentColor" fill-rule="evenodd" d="M24 4.547c-.89.398-1.828.668-2.836.785 1.03-.61 1.805-1.582 2.168-2.73-.937.562-2.004.972-3.105 1.195-.926-.938-2.204-1.547-3.622-1.547-2.718 0-4.91 2.19-4.91 4.91 0 .387.024.785.106 1.137-4.077-.223-7.687-2.074-10.136-5.05-.41.726-.668 1.476-.668 2.39 0 1.687.867 3.187 2.203 4.078-.81-.024-1.56-.246-2.227-.61v.06c0 2.39 1.7 4.382 3.95 4.827-.423.117-.868.176-1.314.176-.305 0-.61-.035-.915-.094.61 1.946 2.45 3.4 4.582 3.422-1.664 1.336-3.808 2.332-6.105 2.332-.4 0-.785-.023-1.172-.082 2.168 1.395 4.78 2.004 7.56 2.004 9.045 0 13.99-7.5 13.99-14.004v-.644c.95-.692 1.782-1.547 2.45-2.555z"/></svg>