<svg width="240" height="240" viewBox="0 0 240 240" xmlns="http://www.w3.org/2000/svg" xmlns:xlink="http://www.w3.org/1999/xlink"><defs><linearGradient x1="100%" y1="29.066%" x2="0%" y2="70.934%" id="a"><stop stop-color="#5EC3E8" offset="0%"/><stop stop-color="#96E8D2" stop-opacity=".5" offset="50.527%"/><stop stop-color="#8C5EE8" offset="100%"/></linearGradient><filter x="-.8%" y="-1.2%" width="101.6%" height="102.4%" filterUnits="objectBoundingBox" id="c"><feGaussianBlur stdDeviation="1" in="SourceAlpha" result="shadowBlurInner1"/><feOffset dy="1" in="shadowBlurInner1" result="shadowOffsetInner1"/><feComposite in="shadowOffsetInner1" in2="SourceAlpha" operator="arithmetic" k2="-1" k3="1" result="shadowInnerInner1"/><feColorMatrix values="0 0 0 0 0 0 0 0 0 0 0 0 0 0 0 0 0 0 0.25 0" in="shadowInnerInner1"/></filter><path d="M148.953367,83.4259985 L188.049167,83.426999 L188.049167,83.426999 L189.130846,83.4350969 L189.130846,83.4350969 L190.192668,83.4515313 C190.367979,83.454979 190.542458,83.4587844 190.716105,83.4629527 L191.747969,83.4923596 L191.747969,83.4923596 L192.759745,83.5307262 L192.759745,83.5307262 L193.751342,83.578302 C193.914921,83.5870125 194.077656,83.5961172 194.239543,83.6056211 L195.200696,83.6674778 L195.200696,83.6674778 L196.141438,83.7391667 C196.60669,83.7775107 197.064254,83.8196353 197.514077,83.8656806 L198.403386,83.9630404 C198.549879,83.9801522 198.695508,83.99771 198.840271,84.015719 L199.698443,84.1292292 L199.698443,84.1292292 L200.535742,84.2538178 L200.535742,84.2538178 L201.352074,84.3897342 C210.8876,86.0660833 216,90.1740782 216,98.5722699 C216,109.872347 210.069901,115.651465 199.839482,118.187417 L199.092466,118.365121 L199.092466,118.365121 L198.330605,118.531718 L198.330605,118.531718 L197.554036,118.687399 C197.292743,118.737495 197.029022,118.785803 196.762896,118.832355 L195.957322,118.966777 C195.821864,118.988314 195.685811,119.009419 195.549164,119.030098 L194.722195,119.149078 L194.722195,119.149078 L194.303418,119.204785 L203.062811,141.793761 C204.519098,145.894368 206.33099,147.210747 210.227926,147.717938 L210.509848,147.752816 L209.477048,151.861385 L188.805501,151.861385 L176.978766,120.085193 L172.234095,120.085193 L167.388473,140.913354 L167.24579,141.63185 L167.24579,141.63185 L167.124951,142.295665 C166.99802,143.039591 166.922548,143.679079 166.922548,144.239338 C166.922548,146.214141 167.866047,146.982969 170.182204,147.409035 L170.618545,147.482916 C170.693821,147.494664 170.770382,147.506146 170.848239,147.517385 L171.331032,147.582097 L171.331032,147.582097 L171.845509,147.642138 L171.845509,147.642138 L172.392244,147.69866 L172.392244,147.69866 L172.97181,147.752816 L171.95454,151.861385 L140.753084,151.861385 L141.778119,147.752816 L142.680095,147.67508 L142.680095,147.67508 L143.2418,147.618661 L143.2418,147.618661 L143.773122,147.557285 L143.773122,147.557285 L144.275184,147.489852 C144.437786,147.466243 144.595698,147.441441 144.749107,147.415264 L145.196012,147.332421 C147.943224,146.77929 149.132341,145.663388 150.04531,142.728375 L150.187355,142.249651 C150.210709,142.167283 150.233919,142.08361 150.257007,141.998608 L150.39427,141.472472 C150.416967,141.382065 150.43959,141.290283 150.462162,141.197104 L161.339211,95.0587915 L161.425494,94.5732992 C161.480715,94.2544685 161.525581,93.95013 161.525581,93.6892685 C161.525581,91.0170287 159.042125,90.1138675 155.54625,90.0714005 L155.282184,90.0698151 L148.953367,90.0698151 C133.585602,90.0698151 125.105763,98.5722699 125.105763,108.941515 C125.105763,116.074447 128.18087,119.6939 132.560566,119.6939 C134.789242,119.6939 136.280202,118.234706 136.280202,116.180422 C136.280202,115.343491 136.115786,114.619983 135.907526,113.925515 L135.721092,113.335401 L135.721092,113.335401 L135.555595,112.750093 C135.340897,111.962291 135.161982,111.132752 135.161982,110.115392 C135.161982,104.832946 138.703013,101.604785 142.803155,101.604785 C148.013751,101.604785 150.910253,105.811177 150.910253,110.311038 C150.910253,119.302608 143.82819,126.737161 133.764206,126.737161 C125.198948,126.737161 117.930516,120.769954 117.930516,108.941515 C117.930516,93.3575668 131.356122,83.6220783 148.434726,83.4289269 L148.953367,83.4259985 Z M102.702528,69.7307692 C107.633569,69.7307692 110.895046,73.6430395 110.895046,78.631184 C110.895046,88.8927428 101.863862,98.5674611 88.0802427,98.5674611 C84.2212859,98.5674611 80.2041188,97.7949344 76.1711711,96.7255434 L75.4148433,96.5216698 L64.8849343,140.901485 C64.5199596,142.27078 64.3335895,143.346654 64.3335895,144.226915 C64.3335895,146.201389 65.3251365,146.970089 67.6685945,147.396083 L68.1096551,147.469952 C68.1856748,147.481699 68.262956,147.493178 68.3415087,147.504415 L68.828163,147.569117 L68.828163,147.569117 L69.3458149,147.629147 L69.3458149,147.629147 L69.8949456,147.68566 L69.8949456,147.68566 L70.4760364,147.739808 L69.451001,151.847691 L38.249545,151.847691 L39.2745804,147.739808 L40.1762685,147.662084 L40.1762685,147.662084 L40.7362442,147.605675 L40.7362442,147.605675 L41.2647442,147.544309 C41.3502733,147.533607 41.4345426,147.522653 41.5175777,147.511424 L42.0011854,147.440562 C42.0793873,147.42814 42.1564066,147.415398 42.2322692,147.402311 L42.67377,147.319482 C45.3133042,146.780997 46.4398731,145.70906 47.3598312,142.944121 L47.5074089,142.480729 C47.5317721,142.400963 47.556036,142.319914 47.5802263,142.23756 L47.724692,141.727588 L47.724692,141.727588 L47.8686304,141.185189 L47.8686304,141.185189 L47.9407887,140.901485 L59.6743377,91.5335253 L56.9719717,90.6532645 L55.1608847,90.0456018 L55.1608847,90.0456018 L53.9939833,89.6620018 C50.3437142,88.4794414 47.0959757,87.621255 43.561092,87.621255 C35.6481294,87.621255 30.5229525,92.7072063 30.5229525,99.1624522 C30.5229525,102.381925 32.013913,104.33806 34.0639838,104.33806 C35.3076771,104.33806 36.1845887,103.555064 37.1563859,102.485313 L37.5040647,102.096655 L37.5040647,102.096655 L37.948579,101.633248 L37.948579,101.633248 L38.2600612,101.31819 L38.2600612,101.31819 L38.5861072,101.002679 C39.9222212,99.7448061 41.6583137,98.5674611 44.3997573,98.5674611 C48.8648736,98.5674611 51.1944995,102.284118 51.1944995,106.000775 C51.1944995,112.1626 45.8907179,116.457947 38.8164206,116.457947 C30.2433974,116.457947 24,110.010852 24,100.531747 C24,85.9666907 36.4867947,76.6750489 50.9149444,76.6750489 C57.8455814,76.6750489 64.117762,79.1777812 69.8004814,82.1294989 L70.7972093,82.654633 C70.9623155,82.7427928 71.1269152,82.8312365 71.2910103,82.9199119 L72.2695393,83.4543255 L72.2695393,83.4543255 L73.236041,83.9917902 L73.236041,83.9917902 L75.1332994,85.0658406 L75.1332994,85.0658406 L76.5252983,85.8607334 L77.4649141,86.4557245 L79.3317376,87.5304412 L79.3317376,87.5304412 L80.2447242,88.0450169 L80.2447242,88.0450169 L81.1445643,88.5407318 C84.866999,90.5630918 88.2562588,92.022559 91.4271385,92.022559 C95.6204651,92.022559 97.6705359,89.9686172 97.6705359,87.5234483 C97.6705359,86.7226554 97.408453,85.9126932 97.0415369,85.0213528 L96.783121,84.4142773 C96.7380384,84.3108246 96.692093,84.2061691 96.6455005,84.1002118 L96.4307755,83.6441411 L96.4307755,83.6441411 L96.2158089,83.1638432 C95.6109564,81.766323 95.0613549,80.0470533 95.0613549,77.7509232 C95.0613549,73.9364597 98.2296461,69.7307692 102.702528,69.7307692 Z M111.205662,101.767823 L110.273812,105.86824 L109.673417,105.918869 L109.673417,105.918869 L108.829659,105.999885 L108.829659,105.999885 L108.303584,106.058903 L108.303584,106.058903 L107.805483,106.123227 C107.644,106.145676 107.487013,106.169196 107.334355,106.193971 L106.889198,106.272251 C104.005829,106.821708 102.787076,107.947813 101.897181,111.136636 L101.765997,111.630615 C101.722979,111.800556 101.680617,111.975839 101.638743,112.15665 L101.514419,112.715855 L96.9561173,131.872872 L117.852861,115.332622 C118.444143,117.512679 119.309947,119.39752 120.419188,120.980618 L120.679474,121.340589 L114.653509,126.109463 C128.988473,170.887972 141.941193,185.944572 150.226896,185.944572 C152.918908,185.944572 154.590199,184.515872 156.010135,182.690311 L156.333701,182.262453 L156.333701,182.262453 L156.650444,181.823322 L156.650444,181.823322 L157.117362,181.149657 L157.117362,181.149657 L157.580748,180.46648 L158.138264,179.611805 L158.138264,179.611805 L158.426371,179.182209 L158.426371,179.182209 L158.720616,178.757428 L158.720616,178.757428 L159.022635,178.339566 C160.65704,176.133165 162.692923,174.311779 166.246957,174.311779 C170.626653,174.311779 173.041699,177.833409 173.041699,181.444711 C173.041699,187.901033 166.806067,193.966063 153.022447,193.966063 C134.210485,193.966063 116.129168,180.543369 101.129348,138.53489 L100.675753,137.253141 L94.5333064,142.046471 L90.5263498,159.255179 L90.3836668,159.973675 L90.3836668,159.973675 L90.2628273,160.63749 C90.1358968,161.381416 90.0604247,162.020904 90.0604247,162.581163 C90.0604247,164.496124 90.9476078,165.277091 93.1162777,165.711158 L93.538017,165.788673 L93.538017,165.788673 L93.9903688,165.859209 C94.0683438,165.870448 94.1476185,165.881444 94.2282048,165.892222 L94.7275582,165.954454 L94.7275582,165.954454 L95.258968,166.012592 L95.258968,166.012592 L96.117452,166.094641 L95.0924166,170.20321 L63.8909606,170.20321 L64.915996,166.094641 L65.5261247,166.043598 L65.5261247,166.043598 L66.1040845,165.989246 L66.1040845,165.989246 L66.6510022,165.930486 C66.8282597,165.910043 67.0005315,165.888681 67.1680052,165.866219 L67.6562205,165.795346 C67.7352534,165.782922 67.8131337,165.770177 67.889885,165.757089 L68.3370322,165.674246 C70.9408784,165.150227 72.1423527,164.121118 73.0370259,161.518689 L73.1834852,161.0702 L73.1834852,161.0702 L73.3253901,160.591476 L73.3253901,160.591476 L73.4638678,160.081419 C73.4867244,159.993737 73.5094852,159.904704 73.5321737,159.814297 L73.6676239,159.255179 L84.663458,112.715855 L84.8026288,111.997359 L84.8026288,111.997359 L84.9212163,111.333544 C85.0461456,110.589618 85.1216178,109.95013 85.1216178,109.389871 C85.1216178,107.468981 84.2878299,106.686397 82.1124389,106.251889 L81.6887072,106.174305 L81.6887072,106.174305 L81.2327878,106.103721 L81.2327878,106.103721 L80.7439369,106.03898 L80.7439369,106.03898 L80.2214105,105.978925 L80.2214105,105.978925 L79.6644648,105.922398 L79.6644648,105.922398 L79.0723559,105.86824 L80.0042063,101.767823 L111.205662,101.767823 Z M182.010758,90.0698151 L186.67001,90.0698151 L187.339799,90.0751909 L187.339799,90.0751909 L187.991413,90.0917061 L187.991413,90.0917061 L188.624673,90.1199418 C194.760918,90.457125 198.209424,92.5786005 198.209424,98.9717141 C198.209424,109.124885 193.061644,113.067162 184.519979,113.415715 L183.881082,113.435 L183.881082,113.435 L183.229929,113.441376 L183.229929,113.441376 L173.818241,113.441376 L178.663862,93.0045071 C179.028837,91.2436919 180.333428,90.0698151 182.010758,90.0698151 Z" id="b"/></defs><g fill="none" fill-rule="evenodd"><rect fill="#FFF" width="240" height="240"/><use fill="url(#a)" xlink:href="#b"/><use fill="#000" filter="url(#c)" xlink:href="#b"/></g></svg>