<svg width="18" height="18" viewBox="0 0 24 24" xmlns="http://www.w3.org/2000/svg"><path d="M5.5,21 C4.122,21 3,19.878 3,18.5 L3,11 L1.5,11 C0.673,11 0,11.673 0,12.5 L0,22.5 C0,23.327 0.673,24 1.5,24 L11.5,24 C12.327,24 13,23.327 13,22.5 L13,21 L5.5,21 L5.5,21 L5.5,21 L5.5,21 L5.5,21 L5.5,21 Z M22.5,0 L5.5,0 C4.673,0 4,0.673 4,1.5 L4,18.5 C4,19.327 4.673,20 5.5,20 L22.5,20 C23.327,20 24,19.327 24,18.5 L24,1.5 C24,0.673 23.327,0 22.5,0 L22.5,0 L22.5,0 L22.5,0 L22.5,0 L22.5,0 Z M19,11.0315789 C19,11.3231579 18.7652632,11.5578947 18.4736842,11.5578947 C18.1831579,11.5578947 17.9473684,11.3231579 17.9473684,11.0315789 L17.9473684,6.79684211 L9.89894737,14.8463158 C9.79578947,14.9484211 9.66105263,15 9.52631579,15 C9.39157895,15 9.25684211,14.9484211 9.15473684,14.8463158 C8.94842105,14.64 8.94842105,14.3073684 9.15473684,14.1010526 L17.2031579,6.05263158 L12.9684211,6.05263158 C12.6778947,6.05263158 12.4421053,5.81684211 12.4421053,5.52631579 C12.4421053,5.23578947 12.6778947,5 12.9684211,5 L18.4736842,5 L18.6747368,5.04 C18.8042105,5.09368421 18.9073684,5.19684211 18.96,5.32526316 L19,5.52631579 L19,11.0315789 L19,11.0315789 L19,11.0315789 L19,11.0315789 L19,11.0315789 L19,11.0315789 Z"></path></svg>