<svg width="18" height="18" viewBox="0 0 24 24" xmlns="http://www.w3.org/2000/svg"><path d="M12,0 C5.373,0 0,5.372 0,12 C0,18.627 5.373,24 12,24 C18.627,24 23.999,18.627 23.999,12 C23.999,5.372 18.627,0 12,0 L12,0 Z M19.778,19.778 C17.786,21.769 15.039,23 12,23 C8.961,23 6.214,21.769 4.222,19.778 C2.231,17.786 1,15.039 1,12 C1,8.961 2.231,6.214 4.222,4.222 C6.214,2.23 8.961,1 12,1 C15.039,1 17.786,2.23 19.778,4.222 C21.769,6.214 23,8.961 23,12 C23,15.039 21.769,17.786 19.778,19.778 L19.778,19.778 Z M18.718,12.725 L17.001,15.008 L17.001,10.01 C17.003,9.148 16.709,8.378 16.168,7.835 C15.63,7.291 14.863,6.992 14.001,6.994 L11.488,6.994 C11.21,6.994 10.986,7.218 10.986,7.494 C10.986,7.77 11.21,7.994 11.486,7.994 L14.001,7.994 C14.64,7.996 15.123,8.203 15.459,8.54 C15.793,8.879 16,9.367 16.002,10.01 C16.001,10.984 16.001,13.412 16.001,15.008 L14.284,12.723 C14.118,12.503 13.805,12.458 13.584,12.624 C13.363,12.79 13.319,13.104 13.485,13.324 L16.101,16.806 C16.108,16.815 16.118,16.818 16.125,16.826 C16.158,16.865 16.198,16.894 16.24,16.922 C16.258,16.933 16.273,16.947 16.292,16.956 C16.356,16.986 16.426,17.006 16.502,17.006 C16.577,17.006 16.647,16.986 16.711,16.956 C16.73,16.948 16.744,16.934 16.761,16.923 C16.805,16.895 16.845,16.865 16.878,16.825 C16.884,16.818 16.895,16.815 16.901,16.806 L19.517,13.325 C19.682,13.105 19.638,12.792 19.417,12.626 C19.197,12.46 18.883,12.504 18.718,12.725 L18.718,12.725 Z M12.502,16.006 L9.987,16.006 C9.347,16.004 8.865,15.797 8.528,15.46 C8.194,15.121 7.988,14.633 7.986,13.99 L7.986,10.177 L7.986,8.991 L9.703,11.276 C9.869,11.497 10.182,11.542 10.403,11.376 C10.624,11.21 10.669,10.896 10.503,10.676 L7.886,7.194 C7.879,7.185 7.868,7.181 7.861,7.173 C7.829,7.136 7.791,7.107 7.749,7.08 C7.73,7.068 7.715,7.053 7.695,7.043 C7.635,7.015 7.57,6.999 7.5,6.997 C7.496,6.997 7.491,6.994 7.486,6.994 C7.482,6.994 7.477,6.997 7.472,6.997 C7.402,6.999 7.338,7.015 7.278,7.043 C7.257,7.053 7.24,7.069 7.221,7.081 C7.18,7.108 7.143,7.136 7.111,7.173 C7.105,7.181 7.094,7.184 7.086,7.194 L4.471,10.674 C4.305,10.895 4.349,11.209 4.57,11.375 C4.791,11.541 5.105,11.496 5.271,11.275 L6.987,8.991 C6.987,10.587 6.986,13.015 6.987,13.99 C6.984,14.851 7.278,15.621 7.819,16.164 C8.358,16.709 9.125,17.008 9.987,17.006 L12.501,17.006 C12.778,17.006 13.002,16.782 13.002,16.506 C13.002,16.23 12.778,16.006 12.502,16.006 L12.502,16.006 Z"></path>
</svg>