<svg xmlns="http://www.w3.org/2000/svg" width="282" height="37" viewBox="-1 -1 282 37"><path d="M31.41 27.357l2.854-11.527c.464-1.708-.324-2.385-1.64-2.385-1.143 0-2.248.392-3.423 1.068l-2.424 9.783c-.25 1.067.07 1.423 1.57 1.566l-.393 1.495h-9.448l.39-1.495c1.64-.178 2.033-.5 2.283-1.566l1.852-7.54c.927-3.666 2.247-6.618 3.78-8.964-2.243-.394-4.42-.925-6.488-1.46l-.357-.073-4.278 17.11c-.5 2.03-.107 2.314 2.138 2.492l-.354 1.495H5.527l.357-1.495c2.316-.178 2.815-.463 3.315-2.492l4.67-18.568c-2.316-.463-4.456-.818-6.415-.818-2.997 0-4.96 1.85-4.96 4.197 0 1.175.536 1.887 1.357 1.887.535 0 .892-.356 1.32-.82.57-.568 1.284-1.28 2.636-1.28 1.677 0 2.605 1.353 2.605 2.705 0 2.243-2.033 3.806-4.74 3.806-3.28 0-5.67-2.35-5.67-5.8C0 3.38 5.205 0 10.732 0c4.99 0 9.447 1.492 13.618 3.022l1.82.677c1.034.39 2.065.782 3.064 1.102 2.854-2.88 6.06-4.126 8.915-4.126 3.03 0 4.777 1.6 4.777 3.735 0 2.596-2.71 4.376-6.347 4.376-1.784 0-3.53-.107-5.206-.285-.5.998-.963 2.172-1.424 3.56 1.638-.89 3.814-1.637 5.56-1.637 2.64 0 5.49.925 4.313 5.55l-2.066 8.323c-.25 1.067-.036 1.388 1.534 1.566l-.356 1.495H31.41zM32.908 5.87c1.427.32 2.85.498 4.278.498 2.426 0 3.243-1.032 3.243-1.957 0-.96-.818-1.46-1.96-1.46-2.176 0-3.956.75-5.562 2.92zm14.356 12.342c-.25 1.14-.357 2.314-.357 3.31 0 2.596 1.284 3.984 3.674 3.984 2.174 0 4.28-1.388 6.095-3.948l1.748 1.207c-2.28 3.417-4.777 5.123-8.59 5.123-5.17 0-8.452-3.2-8.452-7.29 0-6.12 4.564-10.175 10.13-10.175 5.133 0 8.02 2.88 7.127 7.79H47.264zm.678-2.275h6.025c.464-2.204-.463-3.38-2.247-3.38-1.78 0-3.03 1.494-3.778 3.38zm20.794 1.744l.392.283c2.248 1.566 4.995 3.488 4.995 7.614 0 4.126-3.78 8.857-10.16 8.857-4.104 0-7.17-1.99-7.17-5.407 0-3.13 2.567-5.123 5.777-5.123 2.352 0 3.957 1.673 3.957 3.31 0 1.388-.892 2.49-2.354 2.49-1.174 0-1.46-.78-1.745-1.496-.214-.673-.428-1.278-1.284-1.278-1.07 0-1.748.925-1.748 2.097 0 2.206 2.318 3.345 4.206 3.345 3.532 0 5.384-2.598 5.384-4.944 0-2.92-1.995-4.375-3.99-5.8l-.107-.07c-1.963-1.388-3.854-2.74-3.854-5.443 0-3.52 2.96-5.692 7.236-5.692 2.39 0 3.853.71 4.887 1.456l.53-.923h1.324l.354 5.8-1.352.39c-1.07-3.24-3.21-4.73-5.03-4.73-1.496 0-2.78.708-2.78 2.096 0 1.317 1.142 2.172 2.53 3.168zm13.345.532c-.25 1.14-.353 2.314-.353 3.31 0 2.596 1.28 3.984 3.67 3.984 2.174 0 4.276-1.388 6.098-3.948l1.745 1.207c-2.283 3.417-4.777 5.123-8.59 5.123-5.17 0-8.452-3.2-8.452-7.29 0-6.12 4.563-10.175 10.125-10.175 5.134 0 8.023 2.88 7.13 7.79H82.082zm.678-2.275h6.026c.464-2.204-.464-3.38-2.244-3.38-1.784 0-3.032 1.494-3.782 3.38zm12.956 11.42l.392-1.495c2.316-.178 2.85-.463 3.347-2.492l4.21-16.933c.107-.496.178-.887.178-1.208 0-.962-.605-1.14-2.318-1.282l.357-1.495h11.94l-.353 1.495c-2.32.178-2.887.427-3.353 2.49l-1.745 6.972 8.554-6.437c.966-.714 1.64-1.46 1.64-2.064 0-.5-.534-.855-1.815-.962l.353-1.495h9.807l-.357 1.495c-1.82.178-2.354.57-4.78 2.385l-6.63 4.98c5.488 16.293 10.444 21.77 13.62 21.77 1.426 0 2.103-.995 2.817-1.992.746-1.102 1.534-2.238 3.314-2.238 1.677 0 2.602 1.278 2.602 2.595 0 2.35-2.387 4.553-7.664 4.553-7.274 0-14.263-4.98-20.036-20.632l-2.355 1.744-1.533 6.258c-.107.5-.175.89-.175 1.21 0 .96.642 1.14 2.316 1.282l-.393 1.495h-11.94zm27.93 0l.39-1.495c1.642-.178 2.034-.5 2.284-1.566l2.105-8.43c.214-.748.07-1.068-.574-1.068h-1.104l.357-1.388 6.204-2.987h2.066l-3.457 13.873c-.25 1.067-.036 1.388 1.57 1.566l-.393 1.495h-9.45zm10.374-25.082c1.964 0 3.103 1.46 3.103 2.883 0 1.495-1.212 3.023-3.317 3.023-1.96 0-2.993-1.385-2.993-2.844 0-1.495 1.14-3.06 3.208-3.06zm14.09 25.613l.393-1.6c-1.283.962-2.817 1.6-4.53 1.6-3.778 0-6.204-2.703-6.204-6.686 0-6.262 4.064-10.78 9.77-10.78 1.925 0 3.53.5 4.565 1.354l.14-.5.217-.89c.39-1.6.964-3.06 1.713-4.302-2.212-1.282-4.563-2.563-7.596-2.563-1.462 0-1.997.962-2.497 1.923-.532.96-1.03 1.922-2.565 1.922-1.106 0-2.07-.712-2.07-1.887 0-2.49 3.03-4.232 7.24-4.232 3.424 0 6.275 1.563 8.733 2.95.036 0 .036.037.072.037 1.605-1.85 3.67-2.987 5.954-2.987 2.534 0 3.922 1.634 3.922 3.485 0 2.276-1.923 3.842-4.492 3.842-.82 0-1.57-.107-2.283-.356l-3.992 16.08c-.07.252-.107.462-.107.605 0 .606.43.82 1.676.962l-.392 1.495c-2.533 0-5.063.142-7.664.53zm1.21-4.8l2.14-8.646c-.57-1.068-1.747-1.495-2.708-1.495-3.78 0-5.49 4.945-5.49 8.753 0 2.63 1.317 3.38 2.776 3.38 1.323 0 2.43-.89 3.282-1.992zm9.807-17.076c.568.178 1.175.285 1.745.285 1 0 1.927-.534 1.927-1.566 0-.675-.5-1.21-1.392-1.21-1.105 0-1.78.784-2.28 2.492zm9.78 10.6c2.388.927 5.313 1.995 5.313 5.23 0 3.77-3.64 6.046-7.916 6.046-2.46 0-4.53-.852-5.598-1.635l-.642 1.104h-1.356l-.5-6.297 1.25-.214c1.284 3.343 4.244 4.945 6.596 4.945 1.64 0 2.854-.747 2.854-2.1 0-1.1-1.213-1.705-2.747-2.274-2.567-.997-5.956-1.958-5.956-5.408 0-3.27 3.14-5.585 7.49-5.585 2.353 0 3.742.747 4.705 1.528l.638-.993h1.323l.393 5.55-1.427.142c-1.07-2.777-3.317-4.234-5.244-4.234-1.495 0-2.316.82-2.316 1.813 0 1.173 1.427 1.743 3.14 2.383zm33.206-.817h-1.854l-1.852 7.575c-.107.5-.18.89-.18 1.21 0 .96.64 1.14 2.315 1.282l-.39 1.495h-11.945l.392-1.495c2.32-.178 2.854-.463 3.353-2.492l4.17-16.684c.037-.178.07-.318.07-.46 0-1.032-.996-1.353-2.388-1.353h-2.425c-5.88 0-9.127 3.094-9.127 6.867 0 2.595 1.178 3.912 2.816 3.912.89 0 1.462-.534 1.462-1.28 0-.393-.107-.713-.214-1.033-.107-.354-.21-.713-.21-1.173 0-1.922 1.316-3.097 2.92-3.097 1.996 0 3.07 1.53 3.07 3.168 0 3.272-2.676 5.974-6.53 5.974-3.314 0-6.096-2.168-6.096-6.472 0-5.728 5.28-9.287 11.91-9.287H206.1c7.028 0 10.91 1.21 10.91 5.514 0 4.802-3.133 7.01-8.412 7.543 4.174 12.345 8.344 17.574 11.552 17.574 1.427 0 2.105-.996 2.815-1.993.75-1.102 1.534-2.238 3.318-2.238 1.676 0 2.637 1.278 2.637 2.595 0 2.35-2.388 4.553-7.7 4.553-7.524 0-13.94-5.123-19.11-20.205zm3.673-10.922H204c-.64 0-1.14.427-1.282 1.068l-1.855 7.434h3.6c3.564 0 5.74-1.385 5.74-5.262 0-2.562-1.605-3.24-4.42-3.24zm8.68 15.724c0-6.12 4.563-10.174 10.125-10.174 3.924 0 7.31 1.777 7.31 5.977l-11.837 3.627c-.07.534-.07 1.033-.07 1.495 0 2.596 1.284 3.984 3.674 3.984 1.852 0 3.03-1.104 3.03-2.026 0-.32-.108-.534-.18-.786-.106-.246-.216-.53-.216-.923 0-1.565 1.358-2.56 2.678-2.526 1.602 0 2.28 1.175 2.244 2.492-.107 2.95-3.6 6.152-8.344 6.152-5.13 0-8.413-3.2-8.413-7.29zm6.062-3.13l6.596-2.064c.215-1.85-.605-2.847-2.318-2.847-2.28 0-3.6 2.35-4.277 4.912zm23.648 8.466c-1.46 1.175-3.172 1.955-5.13 1.955-3.747 0-6.205-2.703-6.205-6.686 0-6.262 4.063-10.78 9.8-10.78 2.427 0 4.282.677 5.35 1.885l3.07-1.884h2.1l-3.385 13.555c-.214.958-.038 1.35.568 1.35.25 0 .643-.036 1.143-.25l-.5 1.816c-1.106.605-2.247.89-3.778.89-1.602 0-2.744-.605-3.032-1.85zm.25-2.88l2.14-8.575c-.57-1.104-1.748-1.53-2.708-1.53-3.782 0-5.49 4.944-5.49 8.752 0 2.63 1.316 3.38 2.743 3.38 1.355 0 2.46-.927 3.314-2.027zm19.123 4.835l.393-1.6c-1.286.962-2.82 1.6-4.532 1.6-3.778 0-6.204-2.703-6.204-6.686 0-6.262 4.064-10.78 9.768-10.78 1.927 0 3.532.5 4.564 1.354l.142-.5.217-.89c.39-1.6.963-3.06 1.713-4.302-2.212-1.282-4.564-2.563-7.596-2.563-1.462 0-1.997.962-2.497 1.923-.532.96-1.03 1.922-2.565 1.922-1.106 0-2.07-.712-2.07-1.887 0-2.49 3.03-4.232 7.24-4.232 3.424 0 6.275 1.563 8.733 2.95.036 0 .036.037.072.037 1.605-1.85 3.674-2.987 5.954-2.987 2.532 0 3.92 1.634 3.92 3.485 0 2.276-1.923 3.842-4.492 3.842-.82 0-1.57-.107-2.283-.356l-3.992 16.08c-.072.252-.107.462-.107.605 0 .606.43.82 1.676.962l-.392 1.495c-2.533 0-5.063.142-7.664.53zm1.21-4.8l2.14-8.646c-.57-1.068-1.748-1.495-2.708-1.495-3.78 0-5.49 4.945-5.49 8.753 0 2.63 1.317 3.38 2.776 3.38 1.323 0 2.43-.89 3.282-1.992zm9.807-17.076c.568.178 1.174.285 1.745.285 1 0 1.927-.534 1.927-1.566 0-.675-.5-1.21-1.392-1.21-1.106 0-1.78.784-2.28 2.492z"/></svg>