<svg width="18" height="18" viewBox="0 0 24 24" xmlns="http://www.w3.org/2000/svg"><path d="M12,0 C5.373,0 0,5.372 0,12 C0,18.628 5.373,23.999 12,24 C18.627,24 23.999,18.628 23.999,12 C23.999,5.372 18.627,0 12,0 L12,0 L12,0 L12,0 L12,0 Z M19.778,19.778 C17.786,21.769 15.039,23 12,23 C8.961,23 6.214,21.769 4.222,19.778 C2.231,17.786 1,15.039 1,12 C1,8.961 2.231,6.214 4.222,4.222 C6.214,2.23 8.961,1 12,1 C15.039,1 17.786,2.23 19.778,4.222 C21.769,6.214 23,8.961 23,12 C23,15.039 21.769,17.786 19.778,19.778 L19.778,19.778 L19.778,19.778 L19.778,19.778 L19.778,19.778 Z M16.9180781,7.30655195 C11.8020781,11.1995519 9.22107807,14.1455519 9.22107807,14.1455519 C9.22207807,14.1455519 8.56007807,13.5705519 7.09407807,11.9415519 C6.70607807,11.5105519 6.29807807,11.3325519 6.04907807,11.7225519 C5.91907807,11.9275519 6.08107807,12.2215519 6.14707807,12.3285519 C6.66507807,13.1645519 8.93407807,16.8775519 9.02007807,16.9635519 C9.24107807,17.1855519 9.82907807,17.1605519 10.0260781,16.9635519 C10.2700781,16.6335519 11.1530781,15.0175519 12.0820781,13.8005519 C14.3880781,10.7775519 17.1460781,8.19855195 17.7350781,7.70955195 C17.8870781,7.58455195 17.9830781,7.41255195 17.9440781,7.26855195 C17.8780781,7.02055195 17.5610781,6.79855195 16.9180781,7.30655195"></path></svg>