<svg width="18" height="18" viewBox="0 0 24 24" xmlns="http://www.w3.org/2000/svg"><path d="M19.9485176,14.1730074 C19.9485176,14.1650074 19.9525176,14.1590074 19.9525176,14.1520074 L19.9525176,7.47600736 C19.9495176,6.97700736 19.8295176,6.41100736 19.5255176,5.91500736 C19.3735176,5.66900736 19.1695176,5.44000736 18.9035176,5.27000736 C18.6375176,5.10100736 18.3095176,4.99800736 17.9535176,5.00000736 C17.5965176,4.99800736 17.2675176,5.10000736 17.0025176,5.27000736 C16.9825176,5.28300736 16.9715176,5.30300736 16.9525176,5.31600736 L16.9525176,3.47600736 C16.9505176,2.97700736 16.8295176,2.41100736 16.5265176,1.91500736 C16.3735176,1.66900736 16.1695176,1.44000736 15.9035176,1.27000736 C15.6385176,1.10000736 15.3095176,0.998007357 14.9535176,1.00000736 C14.5965176,0.998007357 14.2675176,1.10000736 14.0025176,1.27000736 C13.9125176,1.32700736 13.8555176,1.40900736 13.7805176,1.47700736 C13.7145176,1.28500736 13.6365176,1.09500736 13.5265176,0.915007357 C13.3735176,0.669007357 13.1695176,0.440007357 12.9035176,0.270007357 C12.6385176,0.100007357 12.3095176,-0.000992643167 11.9535176,7.35683289e-06 C11.5965176,-0.000992643167 11.2675176,0.100007357 11.0025176,0.270007357 C10.6015176,0.526007357 10.3455176,0.908007357 10.1845176,1.29800736 C10.1625176,1.35300736 10.1545176,1.40900736 10.1355176,1.46500736 C10.0615176,1.39800736 9.99051764,1.32800736 9.90351764,1.27200736 C9.63851764,1.10200736 9.30951764,1.00100736 8.95351764,1.00200736 C8.59651764,1.00100736 8.26751764,1.10200736 8.00251764,1.27200736 C7.60151764,1.52800736 7.34551764,1.91000736 7.18451764,2.30000736 C7.02451764,2.69300736 6.95351764,3.10300736 6.95251764,3.47800736 L6.95251764,12.5070074 C6.62251764,11.5450074 6.49551764,11.1860074 6.49451764,11.1830074 L6.47751764,11.1420074 C6.27751764,10.7030074 5.97551764,10.3840074 5.63651764,10.1970074 C5.29751764,10.0080074 4.94151764,9.94900736 4.62551764,9.94900736 C3.88451764,9.95400736 3.31451764,10.2500074 3.27751764,10.2630074 C3.10051764,10.3510074 2.99151764,10.5370074 3.00051764,10.7350074 C3.00151764,10.7480074 3.10551764,12.9960074 3.53251764,15.0980074 C4.27651764,18.7460074 5.94051764,21.1470074 6.84451764,22.2370074 C6.96051764,22.4020074 8.31151764,23.9780074 12.4565176,23.9680074 C16.5945176,23.9790074 17.8455176,22.4660074 17.9615176,22.2880074 C17.9625176,22.2870074 17.9625176,22.2860074 17.9635176,22.2850074 C17.9645176,22.2840074 17.9675176,22.2790074 17.9685176,22.2780074 C18.3815176,21.6990074 18.8295176,20.7000074 19.2135176,19.3200074 C19.5945176,17.9380074 19.8945176,16.1870074 19.9485176,14.1730074 L19.9485176,14.1730074 L19.9485176,14.1730074 L19.9485176,14.1730074 Z M18.9495176,14.1380074 C18.8985176,16.0710074 18.6095176,17.7490074 18.2485176,19.0540074 C17.8925176,20.3560074 17.4485176,21.2980074 17.1525176,21.7000074 L17.1505176,21.7030074 C17.1105176,21.7420074 16.1655176,22.9600074 12.4565176,22.9680074 C10.4765176,22.9680074 9.25251764,22.5970074 8.53451764,22.2490074 C8.17651764,22.0760074 7.94351764,21.9070074 7.80451764,21.7900074 L7.66351764,21.6570074 L7.64051764,21.6300074 L7.63851764,21.6280074 L7.62551764,21.6110074 C6.79751764,20.6170074 5.21651764,18.3540074 4.51251764,14.8980074 C4.30951764,13.8990074 4.17951764,12.8420074 4.10251764,12.0370074 C4.06351764,11.6350074 4.03851764,11.2960074 4.02151764,11.0590074 L4.02151764,11.0470074 C4.19151764,10.9960074 4.41151764,10.9470074 4.62551764,10.9490074 C4.81851764,10.9490074 4.99751764,10.9850074 5.14951764,11.0700074 C5.29851764,11.1560074 5.43751764,11.2870074 5.56451764,11.5520074 C5.58951764,11.6240074 5.67551764,11.8680074 5.85851764,12.4000074 C6.08051764,13.0430074 6.43851764,14.0890074 6.98251764,15.7010074 C6.98351764,15.7030074 6.98551764,15.7050074 6.98651764,15.7080074 C7.00451764,15.7590074 7.03351764,15.8030074 7.06651764,15.8450074 C7.07451764,15.8550074 7.07951764,15.8670074 7.08751764,15.8770074 C7.11851764,15.9100074 7.15551764,15.9340074 7.19451764,15.9580074 C7.21151764,15.9690074 7.22551764,15.9830074 7.24351764,15.9920074 C7.27351764,16.0050074 7.30651764,16.0100074 7.33851764,16.0180074 C7.37151764,16.0260074 7.40351764,16.0360074 7.43751764,16.0370074 C7.44351764,16.0380074 7.44751764,16.0410074 7.45351764,16.0410074 C7.47751764,16.0410074 7.49851764,16.0300074 7.52151764,16.0270074 C7.55351764,16.0230074 7.58451764,16.0250074 7.61651764,16.0150074 C7.62451764,16.0120074 7.62851764,16.0060074 7.63551764,16.0040074 C7.65751764,15.9950074 7.67451764,15.9810074 7.69551764,15.9690074 C7.73351764,15.9480074 7.77151764,15.9270074 7.80351764,15.8970074 C7.80951764,15.8900074 7.81351764,15.8820074 7.81951764,15.8750074 C7.85751764,15.8340074 7.88951764,15.7890074 7.91151764,15.7370074 C7.91351764,15.7330074 7.91451764,15.7270074 7.91651764,15.7230074 C7.93951764,15.6670074 7.95151764,15.6080074 7.95251764,15.5460074 C7.95251764,15.5440074 7.95351764,15.5420074 7.95351764,15.5410074 L7.95251764,3.47800736 C7.95051764,3.15200736 8.04851764,2.73000736 8.22951764,2.44400736 C8.31851764,2.29900736 8.42351764,2.18900736 8.53851764,2.11700736 C8.65351764,2.04500736 8.77751764,2.00300736 8.95351764,2.00200736 C9.12751764,2.00300736 9.25251764,2.04500736 9.36751764,2.11700736 C9.53851764,2.22300736 9.69051764,2.42400736 9.79551764,2.68000736 C9.90151764,2.93400736 9.95351764,3.23400736 9.95251764,3.47800736 L9.95251764,11.5940074 C9.95251764,11.8710074 10.1765176,12.0940074 10.4535176,12.0940074 C10.7295176,12.0940074 10.9535176,11.8710074 10.9535176,11.5940074 L10.9525176,3.48100736 C10.9525176,3.48000736 10.9535176,3.47900736 10.9535176,3.47800736 L10.9525176,2.47600736 C10.9505176,2.15000736 11.0485176,1.72800736 11.2295176,1.44200736 C11.3185176,1.29700736 11.4235176,1.18700736 11.5385176,1.11500736 C11.6535176,1.04300736 11.7775176,1.00100736 11.9535176,1.00000736 C12.1275176,1.00100736 12.2525176,1.04300736 12.3675176,1.11500736 C12.5385176,1.22100736 12.6905176,1.42200736 12.7955176,1.67800736 C12.9015176,1.93200736 12.9535176,2.23200736 12.9525176,2.47600736 L12.9525176,10.9990074 C12.9525176,11.2750074 13.1765176,11.4990074 13.4535176,11.4990074 C13.7295176,11.4990074 13.9535176,11.2750074 13.9535176,10.9990074 L13.9525176,3.47900736 C13.9525176,3.47800736 13.9535176,3.47700736 13.9535176,3.47600736 L13.9525176,3.47600736 C13.9505176,3.15000736 14.0485176,2.72800736 14.2295176,2.44200736 C14.3185176,2.29700736 14.4235176,2.18700736 14.5385176,2.11500736 C14.6535176,2.04300736 14.7775176,2.00100736 14.9535176,2.00000736 C15.1275176,2.00100736 15.2525176,2.04300736 15.3675176,2.11500736 C15.5385176,2.22100736 15.6905176,2.42200736 15.7955176,2.67800736 C15.9015176,2.93200736 15.9535176,3.23200736 15.9525176,3.47600736 L15.9525176,11.9990074 C15.9525176,12.2750074 16.1765176,12.4990074 16.4535176,12.4990074 C16.7295176,12.4990074 16.9535176,12.2750074 16.9535176,11.9990074 L16.9535176,7.47700736 C16.9535176,7.47700736 16.9535176,7.47700736 16.9535176,7.47600736 L16.9535176,7.47400736 C16.9505176,7.14800736 17.0485176,6.72700736 17.2295176,6.44200736 C17.3185176,6.29700736 17.4235176,6.18700736 17.5385176,6.11500736 C17.6535176,6.04300736 17.7775176,6.00100736 17.9535176,6.00000736 C18.1275176,6.00100736 18.2525176,6.04300736 18.3665176,6.11500736 C18.5375176,6.22100736 18.6905176,6.42200736 18.7955176,6.67800736 C18.9005176,6.93200736 18.9525176,7.23200736 18.9525176,7.47600736 L18.9525176,14.1250074 C18.9515176,14.1300074 18.9495176,14.1340074 18.9495176,14.1390074 L18.9495176,14.1380074 L18.9495176,14.1380074 L18.9495176,14.1380074 L18.9495176,14.1380074 Z"></path>
</svg>