<?xml version="1.0" encoding="UTF-8" standalone="no"?>
<svg width="24px" height="24px" viewBox="0 0 24 24" version="1.1" xmlns="http://www.w3.org/2000/svg" xmlns:xlink="http://www.w3.org/1999/xlink">
    <!-- Generator: Sketch 3.7 (28169) - http://www.bohemiancoding.com/sketch -->
    <title>Artboard 1</title>
    <desc>Created with Sketch.</desc>
    <defs></defs>
    <g id="Page-1" stroke="none" stroke-width="1" fill="none" fill-rule="evenodd">
        <g id="Artboard-1" fill="#D0D6DA">
            <path d="M18.1578947,0.529601283 C18.1578947,0.237110571 17.9148414,0 17.615096,0 L13.9638513,0 C13.6640719,0 13.4210526,0.237115683 13.4210526,0.529601283 L13.4210526,0.923076923 L3.54287663,0.923076923 C3.24305415,0.923076923 3,1.15994197 3,1.45258346 L3,23.4704935 C3,23.7629318 3.24336735,24 3.54238031,24 L20.4576197,24 C20.7571681,24 21,23.7631349 21,23.4704935 L21,1.45258346 C21,1.16014507 20.7570697,0.923076923 20.4570551,0.923076923 L18.1578947,0.923076923 L18.1578947,0.529601283 L18.1578947,0.529601283 Z M3.94736842,23.0769231 L3.94736842,1.84615385 L13.4210526,1.84615385 L13.4210526,13.3169919 C13.4210526,13.60924 13.5928136,13.678797 13.8048718,13.4721762 L15.4056545,11.9124392 C15.617632,11.705897 15.9612347,11.7058184 16.1732929,11.9124392 L17.7740756,13.4721762 C17.986053,13.6787183 18.1578947,13.6091468 18.1578947,13.3169919 L18.1578947,1.84615385 L20.0526316,1.84615385 L20.0526316,23.0769231 L3.94736842,23.0769231 L3.94736842,23.0769231 Z M17.2105263,11.0884039 C17.2105263,11.3808068 17.0386424,11.4503695 16.8266417,11.2438047 L16.4592632,10.8858462 L16.1732693,10.6071855 C15.9613048,10.400656 15.617856,10.400448 15.405678,10.6071855 L15.1196842,10.8858462 L14.7523057,11.2438047 C14.540292,11.4503821 14.3684211,11.3811392 14.3684211,11.0881451 L14.3684211,1.84615385 L14.3684211,1.45267821 C14.3684211,1.16018749 14.6113513,0.923076923 14.911366,0.923076923 L16.6675814,0.923076923 C16.9674416,0.923076923 17.2105263,1.16018033 17.2105263,1.45251917 L17.2105263,11.0884039 L17.2105263,11.0884039 Z" id="Shape"></path>
        </g>
    </g>
</svg>