<svg xmlns="http://www.w3.org/2000/svg" width="16" height="16" viewBox="0 0 16 16">
  <path fill="#00C2B2" fill-rule="evenodd" d="M9,7.7384406 C9,7.80781046 9.02633921,7.87433912 9.0732233,7.92339102 C9.15458253,8.00851211 9.27806688,8.02269896 9.37346781,7.96595157 L9.4267767,7.92339102 L10.8232233,6.46237607 C10.9045825,6.37725498 11.0280669,6.36306814 11.1234678,6.41981552 L11.1767767,6.46237607 L12.5732233,7.92339102 C12.6201074,7.97244293 12.6836959,8 12.75,8 C12.8683467,8 12.9674868,7.91396431 12.9933973,7.79841377 L13,7.7384406 L13,0 L14,0 C14.5522847,0 15,0.44771525 15,1 L15,15 C15,15.5522847 14.5522847,16 14,16 L2,16 C1.44771525,16 1,15.5522847 1,15 L1,1 C1,0.44771525 1.44771525,0 2,0 L9,0 L9,7.7384406 Z"/>
</svg>
