<svg xmlns="http://www.w3.org/2000/svg" width="24" height="24" viewBox="0 0 24 24"><path fill="#d0d6da" d="M18.158.53c0-.293-.243-.53-.543-.53h-3.65c-.3 0-.544.237-.544.53v.393H3.544c-.3 0-.543.237-.543.53V23.47c0 .293.243.53.542.53h16.916c.3 0 .542-.237.542-.53V1.453c0-.293-.243-.53-.543-.53h-2.3V.53zM3.948 23.077V1.847h9.473v11.47c0 .292.173.362.385.155l1.6-1.56c.213-.206.556-.206.768 0l1.6 1.56c.213.207.385.137.385-.155V1.847h1.895v21.23H3.947zm13.263-11.99c0 .294-.17.363-.383.157l-.368-.358-.287-.28c-.212-.205-.555-.206-.767 0l-.286.28-.368.358c-.212.206-.384.137-.384-.156V1.453c0-.293.243-.53.543-.53h1.758c.3 0 .543.237.543.53v9.635z"/></svg>