<svg xmlns="http://www.w3.org/2000/svg" viewBox="0 0 16 16"><path fill-rule="evenodd" d="M1.273 9.325l-.086.343h2.6l.086-.343c-.365-.032-.512-.073-.512-.292 0-.074.017-.163.047-.278l.878-3.7c.357.1.713.172 1.055.172 1.15 0 1.9-.806 1.9-1.662 0-.415-.27-.74-.68-.74-.374 0-.638.35-.638.667 0 .236.07.4.132.53.046.105.085.196.085.284 0 .204-.172.375-.52.375-.35 0-.73-.21-1.165-.462l-.078-.05c-.613-.35-1.32-.766-2.134-.766C1.04 3.402 0 4.177 0 5.392c0 .79.52 1.326 1.235 1.326.59 0 1.03-.358 1.03-.87 0-.31-.193-.62-.565-.62-.295 0-.45.163-.575.293-.093.106-.17.188-.286.188-.172 0-.296-.163-.296-.43 0-.54.427-.963 1.086-.963.372 0 .706.114 1.118.252l.225.074-.978 4.115c-.116.464-.217.53-.722.57zm13.65-.496l-.73-1.884C15.324 6.8 16 6.326 16 5.226c0-.985-.845-1.26-2.375-1.26h-3.212c-1.444 0-2.585.813-2.585 2.125 0 .987.605 1.484 1.32 1.484.838 0 1.428-.62 1.428-1.37 0-.374-.242-.724-.676-.724-.34 0-.637.27-.637.71 0 .105.024.186.047.267.024.074.047.148.047.237 0 .172-.125.293-.31.293-.365 0-.622-.3-.622-.896 0-.863.707-1.572 1.988-1.572h.527c.303 0 .52.074.52.302 0 .033-.008.073-.015.114l-.9 3.82c-.11.465-.226.53-.73.57l-.086.344h2.6l.084-.343c-.364-.032-.504-.073-.504-.292 0-.074.016-.163.04-.278l.403-1.735h.395l.986 2.648h1.722l.086-.343c-.34-.04-.496-.146-.62-.496zm-1.654-2.364h-.785l.404-1.703c.03-.147.138-.245.278-.245h.388c.613 0 .96.155.96.742 0 .888-.47 1.206-1.247 1.206zm-1.416 5.073c-.388 0-.56.26-.722.512-.155.228-.302.456-.613.456-.692 0-1.77-1.255-2.966-4.986l.503-.398c-.103-.138-.183-.305-.236-.5L6.08 8.002l.38-1.596c.1-.473.225-.53.73-.57l.077-.343h-2.6l-.078.342c.372.033.503.073.503.293 0 .074-.015.163-.038.278l-.916 3.878c-.11.464-.226.53-.73.57l-.086.342h2.6l.086-.342c-.365-.033-.505-.074-.505-.293 0-.072.016-.162.04-.276l.333-1.434.512-.4c1.257 3.585 2.778 4.726 4.362 4.726 1.15 0 1.668-.505 1.668-1.043 0-.3-.2-.594-.566-.594z"/></svg>